<svg width="371" height="70" viewBox="0 0 371 70" fill="none" xmlns="http://www.w3.org/2000/svg">
<g clip-path="url(#clip0_211_2045)">
<path fill-rule="evenodd" clip-rule="evenodd" d="M10.1527 21.15C13.997 21.15 17.1134 24.2664 17.1134 28.1107V21.15H24.0741C27.9184 21.15 31.0348 24.2664 31.0348 28.1107C31.0348 31.9549 27.9184 35.0714 24.0741 35.0714C27.9184 35.0714 31.0348 38.1878 31.0348 42.032C31.0348 43.9409 30.2664 45.6703 29.0221 46.9278L28.9961 46.954L28.973 46.977C27.7152 48.2231 25.9845 48.9927 24.0741 48.9927C22.1767 48.9927 20.4566 48.2335 19.2009 47.0023C19.1846 46.9863 19.1683 46.9702 19.1521 46.954C19.1369 46.9388 19.1217 46.9235 19.1066 46.9081C17.8738 45.6522 17.1134 43.9309 17.1134 42.032C17.1134 45.8763 13.997 48.9927 10.1527 48.9927C6.30842 48.9927 3.19202 45.8763 3.19202 42.032V35.0714H10.1527C6.30842 35.0714 3.19202 31.9549 3.19202 28.1107C3.19202 24.2664 6.30842 21.15 10.1527 21.15ZM15.7213 28.1107C15.7213 31.1861 13.2282 33.6792 10.1527 33.6792V22.5421C13.2282 22.5421 15.7213 25.0352 15.7213 28.1107ZM29.6427 42.032C29.6427 38.9566 27.1495 36.4635 24.0741 36.4635C20.9987 36.4635 18.5055 38.9566 18.5055 42.032H29.6427ZM4.58416 36.4635V42.032C4.58416 45.1075 7.07728 47.6006 10.1527 47.6006C13.2282 47.6006 15.7213 45.1075 15.7213 42.032V36.4635H4.58416ZM18.5055 33.6792V22.5421H24.0741C27.1495 22.5421 29.6427 25.0352 29.6427 28.1107C29.6427 31.1861 27.1495 33.6792 24.0741 33.6792H18.5055Z" fill="#263238"/>
</g>
<g clip-path="url(#clip1_211_2045)">
<path fill-rule="evenodd" clip-rule="evenodd" d="M65.8283 28.0838L58.8775 34.9648C60.2678 36.3411 61.856 37.501 63.5876 38.4085C64.0662 39.6653 64.8164 40.844 65.8382 41.8555C69.6825 45.6611 75.9153 45.6611 79.7596 41.8555C80.7814 40.844 81.5316 39.6653 82.0103 38.4084C83.7418 37.501 85.33 36.3411 86.7203 34.9648L79.7751 28.0894C79.77 28.0843 79.7648 28.0792 79.7596 28.074C75.9153 24.2684 69.6825 24.2684 65.8382 28.074C65.8349 28.0773 65.8316 28.0806 65.8283 28.0838ZM79.0945 39.6499C77.0689 40.3267 74.9426 40.6732 72.7989 40.6732C70.6552 40.6732 68.5289 40.3267 66.5034 39.6499C66.7228 39.9382 66.9651 40.2148 67.2303 40.4774C70.3058 43.5219 75.292 43.5219 78.3674 40.4774C78.6327 40.2148 78.875 39.9382 79.0945 39.6499ZM67.3731 29.3143C67.8954 29.6559 68.4507 29.9482 69.0318 30.1865C70.2261 30.6762 71.5062 30.9283 72.7989 30.9283C74.0916 30.9283 75.3717 30.6762 76.566 30.1865C77.1471 29.9482 77.7024 29.6559 78.2248 29.3143C75.1877 26.4536 70.4101 26.4536 67.3731 29.3143Z" fill="#3B4158"/>
</g>
<g clip-path="url(#clip2_211_2045)">
<path d="M147.971 31.9505C147.975 31.9215 147.975 31.8921 147.971 31.8631C147.975 31.8395 147.975 31.8153 147.971 31.7916L147.688 29.7503C147.647 29.5061 147.538 29.2778 147.372 29.0911L147.323 29.0354L147.234 28.9481L142.324 24.8019L142.462 24.9369C142.349 24.8048 142.208 24.699 142.048 24.6276C141.888 24.5561 141.714 24.5206 141.538 24.5239H140.048C139.805 24.5192 139.568 24.5947 139.375 24.7384C139.172 24.5956 138.928 24.5204 138.678 24.5239H137.188C136.992 24.5208 136.799 24.5684 136.629 24.6618C136.458 24.7553 136.315 24.8913 136.216 25.0561C136.062 25.2914 136.004 25.575 136.053 25.8504L136.24 27.1371C136.116 27.0685 135.977 27.0329 135.835 27.0338H128.616C128.357 27.0354 128.104 27.1099 127.887 27.2483C127.677 27.3772 127.508 27.5617 127.401 27.7805L126.841 27.3118C126.621 27.1123 126.331 27.0041 126.031 27.01H114.705C114.445 27.0147 114.191 27.0858 113.968 27.2165C113.662 27.3917 113.438 27.6766 113.344 28.0108L109.746 39.806C109.679 40.0004 109.673 40.21 109.727 40.4081C109.782 40.6061 109.896 40.7837 110.054 40.918C110.095 40.9523 110.139 40.9841 110.184 41.0133C110.184 41.0133 110.111 40.9657 110.07 40.926L114.98 45.0801C115.188 45.2676 115.46 45.3724 115.742 45.374H127.157C127.418 45.3673 127.673 45.2934 127.895 45.1595C128.02 45.0922 128.133 45.0034 128.227 44.8974L128.267 44.8418L128.332 44.7624L128.381 44.675L128.916 45.1278C129.12 45.3078 129.386 45.4068 129.661 45.4058H141.101C141.361 45.3973 141.615 45.3234 141.838 45.1913C141.961 45.1198 142.073 45.0316 142.17 44.9292L142.211 44.8736L142.276 44.7942C142.31 44.7439 142.34 44.6908 142.365 44.6353C142.391 44.5871 142.413 44.5366 142.43 44.4844L145.711 33.7138V33.6185C145.715 33.5815 145.715 33.5443 145.711 33.5073V33.4358C145.715 33.4121 145.715 33.388 145.711 33.3643C145.715 33.3141 145.715 33.2637 145.711 33.2134H146.764C146.856 33.2216 146.948 33.2216 147.04 33.2134H147.113C147.172 33.1961 147.229 33.172 147.283 33.1419H147.364L147.51 33.0307L147.574 32.9831L147.688 32.8401V32.7925L147.769 32.6574C147.764 32.6312 147.764 32.6043 147.769 32.578C147.765 32.5651 147.765 32.5512 147.769 32.5383C147.786 32.4917 147.8 32.4439 147.809 32.3953C147.806 32.3796 147.806 32.3633 147.809 32.3476C147.805 32.324 147.805 32.2998 147.809 32.2762C147.809 32.2762 147.971 31.9664 147.971 31.9505Z" fill="black"/>
<path d="M126.364 27.9155C126.407 27.9537 126.437 28.0038 126.45 28.0592C126.463 28.1146 126.458 28.1726 126.436 28.2253L122.847 40.0126C122.802 40.1413 122.71 40.2488 122.588 40.3144C122.489 40.3793 122.375 40.4176 122.256 40.4256H110.848C110.751 40.421 110.659 40.3814 110.589 40.3144C110.548 40.2769 110.519 40.2281 110.506 40.1744C110.493 40.1206 110.496 40.0643 110.516 40.0126L114.113 28.2253C114.155 28.095 114.244 27.9845 114.365 27.9155C114.465 27.8553 114.579 27.8199 114.697 27.8123H126.104C126.201 27.8132 126.294 27.8501 126.364 27.9155ZM120.409 37.6376L122.556 30.6002H116.544L114.405 37.6376H120.409ZM137.253 28.0347C137.291 28.079 137.34 28.1142 137.395 28.1376C137.45 28.1609 137.509 28.1719 137.569 28.1697H139.051C139.108 28.1702 139.163 28.1567 139.213 28.1303C139.263 28.1039 139.304 28.0655 139.335 28.0188C139.361 27.9823 139.38 27.941 139.389 27.8973C139.399 27.8537 139.4 27.8086 139.391 27.7646L139.1 25.6677C139.072 25.5706 139.022 25.481 138.954 25.4056C138.915 25.3612 138.866 25.3261 138.812 25.3027C138.757 25.2793 138.698 25.2683 138.638 25.2706H137.155C137.099 25.27 137.043 25.2836 136.994 25.31C136.944 25.3364 136.902 25.3748 136.872 25.4215C136.815 25.5327 136.791 25.6042 136.815 25.6677L137.115 27.7646C137.13 27.8667 137.178 27.9613 137.253 28.0347ZM141.96 25.6518C141.932 25.5548 141.882 25.4651 141.814 25.3897C141.777 25.3455 141.729 25.3104 141.676 25.2869C141.623 25.2635 141.565 25.2525 141.506 25.2547H140.015C139.96 25.2531 139.905 25.2663 139.856 25.2929C139.808 25.3195 139.768 25.3584 139.74 25.4056C139.686 25.476 139.663 25.5646 139.675 25.6518L139.975 27.7487C139.994 27.8498 140.041 27.9434 140.113 28.0188C140.152 28.0623 140.201 28.0968 140.255 28.1201C140.31 28.1435 140.369 28.1549 140.429 28.1538H141.919C141.975 28.1545 142.029 28.141 142.078 28.1145C142.126 28.088 142.166 28.0495 142.195 28.0029C142.223 27.9674 142.243 27.9261 142.252 27.8821C142.262 27.8381 142.262 27.7926 142.251 27.7487L141.96 25.6518ZM135.948 28.829L135.802 27.7964H128.616C128.503 27.8025 128.394 27.8382 128.3 27.8996C128.24 27.9316 128.188 27.9758 128.148 28.0292C128.107 28.0827 128.079 28.1442 128.065 28.2094L127.465 30.1792C127.441 30.2285 127.433 30.2837 127.442 30.3376C127.451 30.3915 127.476 30.4415 127.514 30.4811C127.582 30.5441 127.671 30.5808 127.765 30.5844H136.499L134.352 37.6218H125.642C125.53 37.6243 125.421 37.6573 125.326 37.7171C125.212 37.7884 125.128 37.8987 125.092 38.0268L124.484 39.9967C124.464 40.0472 124.459 40.1022 124.469 40.1554C124.479 40.2087 124.504 40.2582 124.541 40.2985C124.607 40.3657 124.697 40.4055 124.792 40.4097H136.232C136.35 40.3997 136.464 40.3616 136.564 40.2985C136.683 40.2326 136.773 40.1248 136.815 39.9967L140.104 29.2261H136.402C136.343 29.2272 136.285 29.2166 136.23 29.1947C136.176 29.1728 136.127 29.1403 136.086 29.099C136.019 29.027 135.972 28.9396 135.948 28.8449V28.829Z" fill="white"/>
</g>
<g clip-path="url(#clip3_211_2045)">
<path d="M198.785 27.701C198.785 27.7246 198.785 27.754 198.779 27.7717C198.748 28.0011 198.748 28.2306 198.767 28.466C198.779 28.5248 198.791 28.5837 198.84 28.6308C198.92 28.719 199.043 28.7014 199.092 28.5954C199.116 28.5425 199.116 28.4895 199.104 28.4366C199.043 28.213 199.03 27.9776 199.024 27.7481C199.024 27.7363 199.024 27.7187 199.024 27.701C199.092 27.6952 199.153 27.6893 199.208 27.6893C199.251 27.6834 199.288 27.6775 199.319 27.6599C199.41 27.6128 199.41 27.5128 199.312 27.4657C199.276 27.448 199.227 27.4421 199.184 27.4421C199.03 27.448 198.877 27.448 198.724 27.448C198.669 27.448 198.613 27.4539 198.558 27.4598C198.528 27.4657 198.491 27.4657 198.466 27.4833C198.423 27.501 198.399 27.5304 198.399 27.5716C198.405 27.6128 198.423 27.6363 198.466 27.654C198.491 27.6716 198.522 27.6775 198.552 27.6775C198.626 27.6834 198.705 27.6952 198.785 27.701ZM200.471 27.9717C200.471 27.9776 200.477 27.9835 200.477 27.9835C200.502 28.1424 200.526 28.2954 200.545 28.4483C200.551 28.5013 200.557 28.5484 200.594 28.5896C200.673 28.6896 200.796 28.6778 200.851 28.5719C200.876 28.5189 200.882 28.466 200.87 28.4071C200.833 28.2306 200.814 28.0541 200.778 27.8835C200.753 27.7775 200.723 27.6775 200.692 27.5834C200.673 27.5245 200.631 27.4833 200.557 27.4774C200.483 27.4657 200.428 27.501 200.398 27.5539C200.361 27.601 200.33 27.6481 200.306 27.701C200.263 27.7952 200.226 27.8893 200.177 27.9776C200.171 28.0011 200.165 28.0188 200.152 28.0364C200.146 28.0247 200.14 28.0188 200.14 28.0188C200.06 27.8717 199.987 27.7246 199.907 27.5834C199.895 27.5716 199.889 27.5598 199.883 27.5481C199.846 27.4951 199.803 27.4657 199.735 27.4657C199.674 27.4716 199.625 27.5069 199.594 27.5598C199.582 27.5834 199.582 27.601 199.576 27.6246C199.551 27.8128 199.521 28.0011 199.496 28.1894C199.484 28.2954 199.478 28.4013 199.478 28.5072C199.472 28.5307 199.478 28.5601 199.49 28.5837C199.502 28.6307 199.539 28.6602 199.588 28.6661C199.65 28.6719 199.692 28.6543 199.711 28.6072C199.729 28.5719 199.735 28.5425 199.742 28.5131C199.766 28.4071 199.784 28.3071 199.803 28.2071C199.815 28.1482 199.821 28.1012 199.84 28.0364C199.852 28.06 199.864 28.0776 199.876 28.0953C199.932 28.1659 199.987 28.2365 200.054 28.2954C200.122 28.3424 200.177 28.3365 200.232 28.2836C200.244 28.2718 200.25 28.2659 200.263 28.2542C200.318 28.1718 200.385 28.0894 200.44 28.007C200.453 27.9953 200.459 27.9835 200.471 27.9717Z" fill="#3A3B7B"/>
<path d="M186.345 27.8167C186.302 27.9285 186.294 28.009 186.314 28.076C186.336 28.1671 186.392 28.1969 186.469 28.1737C187.189 28.0028 188.768 28.4879 189.352 28.6231C189.49 28.6515 189.602 28.4807 189.508 28.3275C189.371 28.1792 187.793 27.5442 187.19 27.5096C186.954 27.4968 186.532 27.4387 186.345 27.8167Z" fill="#3A3B7B"/>
<path d="M192.516 25.761C192.593 25.8035 192.636 25.8441 192.657 25.8894C192.689 25.9488 192.672 25.99 192.619 26.0109C192.143 26.2339 191.509 27.1939 191.254 27.5249C191.192 27.6011 191.049 27.5568 191.027 27.4316C191.032 27.29 191.593 26.2482 191.907 25.9645C192.03 25.8537 192.233 25.6364 192.516 25.761Z" fill="#3A3B7B"/>
<path d="M188.725 25.2885C188.818 25.2218 188.913 25.1984 188.962 25.2418C189.681 25.8313 190.061 26.7648 190.297 27.6194C190.306 27.6393 190.307 27.6679 190.3 27.6977C190.297 27.7232 190.277 27.7501 190.246 27.7709C190.214 27.7939 190.185 27.8009 190.172 27.7811C189.857 27.3702 188.059 25.7714 188.725 25.2885Z" fill="#3A3B7B"/>
<path d="M173.517 35.5089C173.689 35.386 173.876 35.2836 174.074 35.2041C174.281 35.1473 174.502 35.1567 174.703 35.231C174.904 35.3053 175.075 35.4404 175.189 35.6159C175.291 35.791 175.331 35.9931 175.302 36.1919C175.274 36.3906 175.18 36.5751 175.033 36.7178C174.919 36.8334 174.789 36.9341 174.648 37.0173C174.018 37.4078 173.383 37.7768 172.748 38.1673C172.618 38.265 172.48 38.3527 172.335 38.4294C172.116 38.5346 171.864 38.5627 171.625 38.509C171.386 38.4553 171.174 38.3231 171.026 38.1352C170.915 38.0021 170.821 37.8567 170.747 37.7019C170.145 36.4878 169.521 35.279 168.942 34.0434C168.674 33.5086 168.457 32.8934 168.245 32.2997C168.153 32.1272 168.135 31.9273 168.195 31.7423C168.255 31.5573 168.387 31.402 168.564 31.3093C168.741 31.2166 168.949 31.194 169.144 31.2461C169.338 31.2982 169.503 31.421 169.605 31.5884C169.916 31.9859 170.192 32.4082 170.43 32.8507C171.031 33.9204 171.605 34.9901 172.185 36.0278C172.219 36.0851 172.256 36.1404 172.296 36.1936C172.733 36.0175 173.143 35.7874 173.517 35.5089Z" fill="#3A3B7B"/>
<path d="M179.74 35.1358C178.363 36.6816 176.056 36.2911 174.897 34.3014C174.072 32.8893 173.927 30.5573 175.722 29.0864C176.105 28.7785 176.563 28.5687 177.054 28.4767C177.655 28.3939 178.268 28.4957 178.806 28.7676C179.343 29.0395 179.778 29.4674 180.046 29.9903C181.027 31.7019 180.888 33.8842 179.74 35.1358ZM179.183 31.5308C179.036 31.1102 178.743 30.7511 178.352 30.5145C178.131 30.3632 177.862 30.2897 177.591 30.3063C177.32 30.3228 177.064 30.4285 176.864 30.6054C176.067 31.2847 175.9 32.8947 176.48 33.8521C176.554 34.0082 176.662 34.147 176.798 34.2586C176.933 34.3703 177.093 34.4522 177.265 34.4985C177.437 34.5449 177.617 34.5546 177.793 34.5271C177.97 34.4994 178.138 34.4352 178.285 34.3388C178.717 34.0174 179.034 33.5747 179.192 33.0725C179.35 32.5702 179.341 32.0332 179.166 31.5361L179.183 31.5308Z" fill="#3A3B7B"/>
<path d="M185.357 32.2047C185.216 32.2338 185.071 32.2355 184.929 32.2098C184.787 32.1841 184.653 32.1314 184.532 32.055C184.427 31.9972 184.337 31.9179 184.268 31.8226C184.198 31.7273 184.152 31.6185 184.132 31.5039C184.111 31.3894 184.118 31.2719 184.15 31.16C184.183 31.0481 184.241 30.9446 184.321 30.8568C184.459 30.6805 184.655 30.5542 184.878 30.4985C185.459 30.3366 186.057 30.2379 186.661 30.2043C186.794 30.1895 186.929 30.2003 187.057 30.236C187.185 30.2718 187.305 30.3318 187.409 30.4125C187.512 30.4932 187.598 30.593 187.661 30.7061C187.724 30.8191 187.763 30.9431 187.776 31.0708C187.95 31.6979 187.969 32.3555 187.832 32.991C187.33 35.0449 185.602 35.7509 183.663 35.093C183.119 34.9171 182.641 34.5894 182.292 34.1516C181.826 33.6245 181.496 32.9998 181.328 32.3277C181.192 31.7293 181.207 31.1083 181.372 30.5165C181.536 29.9247 181.846 29.3794 182.275 28.926C182.683 28.4332 183.211 28.0453 183.814 27.7974C184.194 27.5961 184.64 27.5388 185.062 27.6369C185.158 27.6624 185.245 27.712 185.314 27.7806C185.383 27.8492 185.432 27.9342 185.455 28.027C185.478 28.1198 185.475 28.2168 185.446 28.3081C185.417 28.3994 185.364 28.4816 185.29 28.5462C185.151 28.6671 185 28.7746 184.839 28.8671C184.344 29.1699 183.912 29.5602 183.568 30.0171C183.343 30.3128 183.188 30.6523 183.113 31.0117C183.039 31.3712 183.048 31.7419 183.139 32.0978C183.266 32.583 183.546 33.0185 183.942 33.344C185.168 34.4137 186.762 33.3814 186.483 31.9212C186.076 32.0175 185.719 32.1191 185.357 32.2047Z" fill="#3A3B7B"/>
<path d="M192.847 35.2213C191.036 36.2911 188.974 35.2213 188.523 32.9749C188.194 31.3703 188.818 29.1238 191.003 28.268C191.467 28.0899 191.972 28.0273 192.468 28.0862C193.065 28.191 193.613 28.473 194.033 28.8924C194.454 29.3117 194.728 29.8473 194.814 30.4236C195.182 32.333 194.346 34.3709 192.847 35.2213ZM193.477 31.6217C193.476 31.1773 193.313 30.7474 193.015 30.4075C192.855 30.1973 192.625 30.0467 192.362 29.9813C192.1 29.916 191.823 29.9399 191.577 30.0492C190.596 30.4556 189.905 31.9319 190.156 33.0177C190.175 33.1881 190.232 33.3524 190.325 33.4992C190.417 33.6459 190.541 33.7716 190.689 33.8674C190.838 33.9631 191.006 34.0267 191.182 34.0537C191.358 34.0805 191.539 34.0702 191.71 34.0232C192.229 33.8494 192.678 33.5246 192.994 33.094C193.311 32.6634 193.48 32.1487 193.477 31.6217Z" fill="#3A3B7B"/>
<path d="M196.646 35.6707C196.619 35.8664 196.511 36.0437 196.348 36.1636C196.184 36.2835 195.978 36.3361 195.774 36.3098C195.57 36.2836 195.385 36.1806 195.26 36.0237C195.135 35.8667 195.081 35.6685 195.108 35.4728C195.135 35.277 195.243 35.0997 195.406 34.9798C195.57 34.8599 195.776 34.8074 195.98 34.8336C196.184 34.8598 196.369 34.9627 196.494 35.1197C196.619 35.2767 196.673 35.4749 196.646 35.6707ZM196.161 28.4553C196.267 28.2999 196.423 28.1816 196.604 28.118C196.786 28.0543 196.985 28.0488 197.17 28.1022C197.358 28.1475 197.525 28.2535 197.641 28.4024C197.758 28.5514 197.818 28.7344 197.811 28.9206C197.786 29.2193 197.74 29.516 197.671 29.8085C197.488 30.798 197.309 31.7875 197.114 32.7663C197.025 33.1568 196.908 33.5312 196.78 33.927C196.735 34.0507 196.661 34.1625 196.562 34.2532C196.501 34.3215 196.423 34.3739 196.336 34.4055C196.248 34.4371 196.153 34.447 196.06 34.4342C195.968 34.4214 195.88 34.3863 195.805 34.3323C195.73 34.2782 195.67 34.2069 195.632 34.1249C195.566 33.9778 195.53 33.8198 195.526 33.6595C195.526 32.9963 195.526 32.3277 195.571 31.6591C195.646 30.705 195.795 29.7574 196.016 28.8243C196.042 28.6993 196.091 28.5798 196.161 28.4713V28.4553Z" fill="#3A3B7B"/>
<path fill-rule="evenodd" clip-rule="evenodd" d="M171.162 39.9688C171.097 40.1098 171.078 40.267 171.111 40.4182C171.132 40.6176 171.179 40.8137 171.251 41.0021C171.34 41.2328 171.44 41.4609 171.563 41.742C171.591 41.8067 171.621 41.8742 171.652 41.9453C171.818 42.3262 172.026 42.8129 172.304 43.5174C172.383 43.7175 172.453 43.9192 172.523 44.1224C172.552 44.2045 172.58 44.2868 172.609 44.3694C172.714 44.6628 172.894 44.9264 173.133 45.1353C173.234 45.2501 173.369 45.3338 173.519 45.3757C173.673 45.4183 173.837 45.4156 173.989 45.3679C174.141 45.3202 174.274 45.2296 174.372 45.108C174.468 44.9887 174.525 44.8451 174.536 44.6949C174.598 44.4025 174.577 44.0993 174.474 43.8174C174.312 43.3493 174.127 42.8805 173.913 42.422L173.912 42.42C173.561 41.7027 173.204 40.9903 172.83 40.2776L172.827 40.2726C172.717 40.087 172.575 39.921 172.406 39.7822C172.297 39.6583 172.146 39.5747 171.979 39.5459C171.808 39.5164 171.633 39.5461 171.483 39.6295C171.341 39.7072 171.229 39.8259 171.162 39.9688Z" fill="#3A3B7B"/>
<path fill-rule="evenodd" clip-rule="evenodd" d="M176.529 38.2024C175.978 38.0655 175.403 38.0455 174.843 38.144C174.409 38.1849 173.983 38.2809 173.687 38.471C173.536 38.5678 173.415 38.692 173.347 38.8499C173.279 39.0087 173.27 39.1903 173.326 39.3926C173.428 39.7632 173.56 40.1235 173.692 40.4827L173.713 40.5409L173.714 40.5421C174.111 41.5856 174.512 42.6255 174.916 43.6618C174.963 43.8251 175.03 43.9827 175.115 44.1313L175.116 44.134C175.228 44.3186 175.372 44.4837 175.542 44.6224C175.626 44.6987 175.731 44.7514 175.845 44.775C175.959 44.7988 176.079 44.7919 176.19 44.755C176.301 44.7182 176.399 44.6528 176.474 44.566C176.547 44.4806 176.596 44.3778 176.613 44.2683C176.686 43.9709 176.663 43.6592 176.546 43.3749C176.51 43.2793 176.481 43.1815 176.451 43.0786C176.441 43.0443 176.431 43.0094 176.42 42.9738C177.346 42.6265 178.331 42.1596 178.677 41.0732C178.813 40.6978 178.824 40.2912 178.709 39.9094C178.595 39.5271 178.359 39.1882 178.036 38.9395C177.596 38.5913 177.081 38.3397 176.529 38.2024ZM175.002 39.5349C175.02 39.5299 175.038 39.5252 175.057 39.5208C175.659 39.4299 176.276 39.5511 176.793 39.8619C177.021 40.014 177.114 40.183 177.13 40.3456C177.147 40.513 177.083 40.6944 176.956 40.8687C176.715 41.1981 176.276 41.4618 175.879 41.5109C175.59 40.8715 175.296 40.2062 175.002 39.5349Z" fill="#3A3B7B"/>
<path d="M180.202 37.0319C180.858 36.7411 181.671 36.6909 182.307 36.8953C182.467 36.9401 182.606 37.037 182.7 37.1693C182.793 37.3009 182.836 37.4594 182.822 37.6178C182.821 37.7207 182.794 37.8219 182.745 37.9132C182.695 38.0061 182.622 38.086 182.532 38.1462C182.443 38.2064 182.34 38.2451 182.232 38.2589C182.123 38.2727 182.013 38.2613 181.911 38.2257L181.903 38.223L181.895 38.2193C181.843 38.1929 181.787 38.173 181.729 38.1601L181.726 38.1593C181.278 38.0453 180.856 38.2342 180.702 38.4664C180.629 38.5771 180.62 38.6889 180.681 38.7905C180.746 38.8994 180.907 39.0216 181.233 39.1086C181.322 39.1322 181.414 39.155 181.507 39.1781C181.764 39.2421 182.032 39.3085 182.29 39.4006L182.291 39.4009C183.484 39.8366 183.929 40.7389 183.776 41.5875C183.626 42.4267 182.896 43.1905 181.798 43.3706C181.398 43.4557 180.982 43.4391 180.591 43.3226C180.199 43.2058 179.846 42.9926 179.566 42.7041L179.559 42.6966C179.471 42.5879 179.412 42.4602 179.385 42.3247C179.361 42.2025 179.374 42.0761 179.422 41.9606C179.47 41.8457 179.551 41.7463 179.655 41.6738C179.766 41.5917 179.899 41.5424 180.038 41.5322C180.177 41.5219 180.315 41.5509 180.437 41.6154C180.559 41.6718 180.672 41.7438 180.774 41.8294L180.776 41.831C180.955 41.9887 181.173 42.0298 181.381 41.9918C181.593 41.9531 181.792 41.833 181.92 41.6736C182.047 41.5151 182.098 41.327 182.037 41.1443C181.977 40.9603 181.793 40.7541 181.391 40.5817C181.285 40.5388 181.176 40.5042 181.063 40.4706C181.032 40.4615 181.001 40.4524 180.97 40.4433C180.886 40.4188 180.799 40.3936 180.715 40.3659C180.656 40.3468 180.598 40.3287 180.541 40.3108C180.384 40.2618 180.232 40.2141 180.085 40.1501C179.765 40.0456 179.489 39.8449 179.297 39.5778C179.105 39.3096 179.008 38.9889 179.021 38.6635C179.022 37.8706 179.542 37.3243 180.202 37.0319Z" fill="#3A3B7B"/>
<path d="M188.52 36.9475C188.392 36.8878 188.252 36.8595 188.11 36.8651C187.969 36.8707 187.831 36.9099 187.709 36.9794C187.588 37.0484 187.487 37.1451 187.415 37.2607C187.348 37.3581 187.302 37.467 187.279 37.5814C187.256 37.6957 187.257 37.8131 187.281 37.9271C187.304 38.0737 187.331 38.2162 187.357 38.3567C187.4 38.5892 187.441 38.8165 187.469 39.0483L187.47 39.0542C187.533 39.4177 187.566 39.7853 187.569 40.1537L187.569 40.1589C187.59 40.5568 187.449 40.9469 187.175 41.2464L187.171 41.2518C187.082 41.3613 186.963 41.4449 186.827 41.4932C186.692 41.5415 186.544 41.5526 186.403 41.5252C186.261 41.4979 186.129 41.4332 186.024 41.3384C185.918 41.2435 185.841 41.122 185.803 40.988C185.722 40.7055 185.675 40.415 185.663 40.1222L185.802 37.9997C185.804 37.972 185.806 37.9436 185.809 37.9149C185.814 37.8504 185.819 37.7848 185.822 37.7235C185.825 37.6334 185.822 37.5407 185.8 37.453C185.778 37.3634 185.735 37.2781 185.66 37.2055C185.585 37.1336 185.484 37.0805 185.357 37.0444C185.127 36.9806 184.933 36.9826 184.771 37.0486C184.609 37.1145 184.498 37.2369 184.42 37.3783C184.342 37.5185 184.292 37.6845 184.254 37.8507C184.226 37.9741 184.203 38.1036 184.182 38.2269C184.174 38.2694 184.167 38.3111 184.16 38.3516L184.16 38.3528C184.045 39.0288 184.011 39.7152 184.058 40.3987C184.067 40.7681 184.147 41.1327 184.295 41.4739C184.461 41.9141 184.763 42.2955 185.16 42.5678C185.558 42.8406 186.033 42.991 186.522 42.9989C187.011 43.0068 187.491 42.872 187.898 42.6123C188.305 42.353 188.62 41.9813 188.802 41.5464C189.057 40.9924 189.176 40.39 189.151 39.7849C189.136 39.3432 189.111 38.8981 189.087 38.4553C189.074 38.238 189.062 38.0213 189.051 37.8058C189.046 37.5898 188.971 37.3805 188.838 37.2062C188.756 37.0959 188.647 37.007 188.52 36.9475Z" fill="#3A3B7B"/>
<path d="M193.022 40.2755C193.009 40.2912 192.996 40.3075 192.982 40.3244C192.878 39.7515 192.782 39.1788 192.686 38.6052C192.652 38.3994 192.617 38.1927 192.582 37.9866L192.578 37.9636L192.566 37.9438C192.542 37.9064 192.539 37.8697 192.539 37.7915V37.7825L192.538 37.7736C192.512 37.6121 192.436 37.4619 192.319 37.3425C192.204 37.2234 192.053 37.1406 191.887 37.1046C191.722 37.0655 191.548 37.0741 191.388 37.1294C191.228 37.1846 191.089 37.2838 190.988 37.4146C190.903 37.5149 190.834 37.6262 190.782 37.7451C190.665 38.0013 190.546 38.2581 190.427 38.5156L190.425 38.5201C190.128 39.163 189.83 39.8102 189.54 40.4624L189.539 40.4645C189.361 40.8875 189.213 41.3331 189.067 41.7774C189.038 41.8661 189.008 41.9547 188.979 42.0431C188.926 42.1833 188.903 42.3323 188.911 42.4811C188.901 42.6144 188.934 42.7474 189.006 42.862C189.079 42.979 189.189 43.071 189.319 43.1252C189.457 43.1834 189.612 43.1957 189.758 43.1603C189.905 43.1249 190.034 43.044 190.127 42.9302C190.246 42.7901 190.348 42.6372 190.431 42.4753C190.677 41.9927 190.912 41.5043 191.146 41.018C191.236 40.8299 191.324 40.6615 191.424 40.478C191.431 40.5006 191.438 40.5227 191.445 40.5448C191.55 40.9877 191.727 41.412 191.97 41.8021C192.016 41.8847 192.079 41.9569 192.157 42.0137C192.236 42.0713 192.326 42.1116 192.423 42.1321C192.519 42.1526 192.619 42.1527 192.715 42.1324C192.812 42.1121 192.903 42.0717 192.981 42.0145L193.137 41.9028L194.344 40.9271L194.272 41.3636C194.174 41.9636 194.077 42.5587 193.974 43.1538C193.906 43.4176 193.906 43.6932 193.974 43.9569C194.003 44.1053 194.078 44.2419 194.189 44.3493C194.3 44.4577 194.443 44.5312 194.599 44.5606C194.755 44.5899 194.916 44.5737 195.062 44.5139C195.206 44.455 195.328 44.3566 195.414 44.2311C195.613 43.9942 195.737 43.7073 195.771 43.4046C195.822 42.9772 195.88 42.544 195.938 42.1109C196.004 41.6118 196.071 41.1127 196.127 40.6232L196.128 40.6217C196.182 40.0859 196.208 39.5479 196.206 39.0096C196.218 38.8395 196.174 38.67 196.08 38.5252C195.986 38.3798 195.846 38.2668 195.681 38.2022C195.509 38.1272 195.317 38.1072 195.132 38.1451C194.949 38.1827 194.783 38.2755 194.658 38.4098C194.436 38.6074 194.227 38.8189 194.033 39.0428L194.032 39.0443C193.82 39.2972 193.61 39.5551 193.402 39.8113C193.275 39.9671 193.148 40.1225 193.022 40.2755Z" fill="#3A3B7B"/>
</g>
<g clip-path="url(#clip4_211_2045)">
<path d="M252.689 26.5031C252.689 26.8275 252.956 27.0904 253.284 27.0904H253.879C254.207 27.0904 254.473 26.8275 254.473 26.5031C254.473 26.1788 254.207 25.9158 253.879 25.9158H253.284C252.956 25.9158 252.689 26.1788 252.689 26.5031Z" fill="#212326"/>
<path d="M235.447 44.7097H238.335L237.495 43.8791C237.272 43.6588 236.969 43.5351 236.654 43.5351H235.447C230.85 43.5351 227.123 39.8538 227.123 35.3128C227.123 30.7717 230.85 27.0905 235.447 27.0904H244.96C249.557 27.0904 253.284 30.7717 253.284 35.3128C253.284 39.8538 249.557 43.5351 244.96 43.5351H241.401C240.928 43.5351 240.475 43.3495 240.14 43.0191L239.155 42.046C238.598 41.4953 237.841 41.1859 237.053 41.1859H235.447C232.163 41.1859 229.502 38.5564 229.502 35.3128C229.502 32.0691 232.163 29.4397 235.447 29.4397H244.96C248.244 29.4397 250.906 32.0691 250.906 35.3128C250.906 38.5564 248.244 41.1859 244.96 41.1859H242.675C242.202 41.1859 241.748 41.0002 241.414 40.6698L240.429 39.6967C239.871 39.146 239.115 38.8366 238.327 38.8366H235.447C233.477 38.8366 231.88 37.2589 231.88 35.3128C231.88 33.3666 233.477 31.7889 235.447 31.7889H244.96C246.93 31.7889 248.527 33.3666 248.527 35.3128C248.527 37.2352 246.969 38.7981 245.032 38.8359L245.032 38.8366H244.162C243.688 38.8366 243.235 38.651 242.9 38.3206L241.915 37.3475C241.458 36.8956 240.867 36.6062 240.233 36.5169L240.204 36.4874H235.447C234.79 36.4874 234.258 35.9615 234.258 35.3128C234.258 34.6641 234.79 34.1382 235.447 34.1382H244.96C245.617 34.1382 246.149 34.6641 246.149 35.3128C246.149 35.9615 245.617 36.4874 244.96 36.4874H242.582L243.423 37.318C243.646 37.5382 243.948 37.662 244.264 37.662H244.96C246.274 37.662 247.338 36.6102 247.338 35.3128C247.338 34.0153 246.274 32.9635 244.96 32.9635H235.447C234.134 32.9635 233.069 34.0153 233.069 35.3128C233.069 36.6102 234.134 37.662 235.447 37.662H239.813C240.286 37.662 240.74 37.8476 241.074 38.178L242.059 39.1511C242.617 39.7018 243.373 40.0112 244.162 40.0112H245.257V40.0022C247.746 39.8506 249.717 37.809 249.717 35.3128C249.717 32.7179 247.587 30.6143 244.96 30.6143H235.447C232.82 30.6143 230.691 32.7179 230.691 35.3128C230.691 37.9077 232.82 40.0112 235.447 40.0112H238.327C238.8 40.0112 239.253 40.1969 239.588 40.5273L240.573 41.5004C241.131 42.0511 241.887 42.3605 242.675 42.3605H244.96C248.901 42.3605 252.095 39.2051 252.095 35.3128C252.095 31.4204 248.901 28.2651 244.96 28.2651H235.447C231.507 28.2651 228.312 31.4204 228.312 35.3128C228.312 39.2051 231.507 42.3605 235.447 42.3605H237.053C237.526 42.3605 237.98 42.5461 238.314 42.8765L239.299 43.8496C239.857 44.4003 240.613 44.7097 241.401 44.7097H244.96C250.214 44.7097 254.473 40.5026 254.473 35.3128C254.473 30.123 250.214 25.9158 244.96 25.9158L235.447 25.9158C230.193 25.9158 225.934 30.123 225.934 35.3128C225.934 40.5026 230.193 44.7097 235.447 44.7097Z" fill="#212326"/>
</g>
<g clip-path="url(#clip5_211_2045)">
<path d="M286.035 28.004C284.622 28.004 283.266 28.5655 282.266 29.5651L279.004 32.827C278.005 33.8266 277.443 35.1822 277.443 36.5957C277.443 39.5392 279.83 41.9254 282.773 41.9254C284.187 41.9254 285.542 41.3639 286.542 40.3644L288.798 38.108C288.798 38.108 288.798 38.1081 288.798 38.108L295.372 31.5338C295.85 31.0565 296.497 30.7883 297.172 30.7883C298.302 30.7883 299.261 31.5249 299.593 32.5443L301.668 30.4695C300.721 28.987 299.061 28.004 297.172 28.004C295.759 28.004 294.403 28.5655 293.403 29.5651L284.573 38.3956C284.096 38.873 283.448 39.1411 282.773 39.1411C281.367 39.1411 280.228 38.0015 280.228 36.5957C280.228 35.9206 280.496 35.2732 280.973 34.7958L284.235 31.5338C284.713 31.0565 285.36 30.7883 286.035 30.7883C287.165 30.7883 288.123 31.525 288.456 32.5444L290.531 30.4695C289.584 28.9871 287.924 28.004 286.035 28.004Z" fill="#394149"/>
<path d="M295.71 38.3956C295.233 38.873 294.585 39.1411 293.91 39.1411C292.78 39.1411 291.822 38.4047 291.49 37.3855L289.415 39.4603C290.361 40.9425 292.021 41.9254 293.91 41.9254C295.324 41.9254 296.679 41.3639 297.679 40.3644L306.509 31.5338C306.987 31.0565 307.634 30.7883 308.309 30.7883C309.715 30.7883 310.855 31.9279 310.855 33.3337C310.855 34.0088 310.587 34.6563 310.109 35.1336L306.847 38.3956C306.37 38.873 305.722 39.1411 305.047 39.1411C303.917 39.1411 302.959 38.4046 302.627 37.3853L300.552 39.4601C301.498 40.9425 303.158 41.9254 305.047 41.9254C306.461 41.9254 307.816 41.3639 308.816 40.3644L312.078 37.1024C313.077 36.1029 313.639 34.7473 313.639 33.3337C313.639 30.3902 311.253 28.004 308.309 28.004C306.896 28.004 305.54 28.5655 304.541 29.5651L295.71 38.3956Z" fill="#394149"/>
</g>
<g clip-path="url(#clip6_211_2045)">
<path d="M370.714 31.9505C370.718 31.9215 370.718 31.8921 370.714 31.8631C370.717 31.8395 370.717 31.8153 370.714 31.7916L370.43 29.7503C370.389 29.5061 370.28 29.2778 370.114 29.0911L370.065 29.0354L369.976 28.9481L365.067 24.8019L365.204 24.9369C365.092 24.8048 364.95 24.699 364.79 24.6276C364.631 24.5561 364.456 24.5206 364.281 24.5239H362.79C362.547 24.5192 362.311 24.5947 362.117 24.7384C361.915 24.5956 361.67 24.5204 361.421 24.5239H359.93C359.734 24.5208 359.542 24.5684 359.371 24.6618C359.2 24.7553 359.058 24.8913 358.958 25.0561C358.804 25.2914 358.746 25.575 358.796 25.8504L358.982 27.1371C358.859 27.0685 358.719 27.0329 358.577 27.0338H351.358C351.099 27.0354 350.846 27.1099 350.629 27.2483C350.419 27.3772 350.25 27.5617 350.143 27.7805L349.584 27.3118C349.364 27.1123 349.073 27.0041 348.774 27.01H337.447C337.187 27.0147 336.933 27.0858 336.71 27.2165C336.404 27.3917 336.181 27.6766 336.086 28.0108L332.489 39.806C332.421 40.0004 332.415 40.21 332.47 40.4081C332.524 40.6061 332.638 40.7837 332.796 40.918C332.838 40.9523 332.881 40.9841 332.926 41.0133C332.926 41.0133 332.853 40.9657 332.813 40.926L337.722 45.0801C337.93 45.2676 338.202 45.3724 338.484 45.374H349.9C350.16 45.3673 350.415 45.2934 350.637 45.1595C350.763 45.0922 350.875 45.0034 350.969 44.8974L351.01 44.8418L351.074 44.7624L351.123 44.675L351.658 45.1278C351.863 45.3078 352.128 45.4068 352.403 45.4058H363.843C364.104 45.3973 364.357 45.3234 364.58 45.1913C364.703 45.1198 364.815 45.0316 364.913 44.9292L364.953 44.8736L365.018 44.7942C365.052 44.7439 365.082 44.6908 365.107 44.6353C365.134 44.5871 365.155 44.5366 365.172 44.4844L368.453 33.7138V33.6185C368.457 33.5815 368.457 33.5443 368.453 33.5073V33.4358C368.457 33.4121 368.457 33.388 368.453 33.3643C368.457 33.3141 368.457 33.2637 368.453 33.2134H369.506C369.598 33.2216 369.69 33.2216 369.782 33.2134H369.855C369.914 33.1961 369.971 33.172 370.025 33.1419H370.106L370.252 33.0307L370.317 32.9831L370.43 32.8401V32.7925L370.511 32.6574C370.507 32.6312 370.507 32.6043 370.511 32.578C370.507 32.5651 370.507 32.5512 370.511 32.5383C370.528 32.4917 370.542 32.4439 370.552 32.3953C370.548 32.3796 370.548 32.3633 370.552 32.3476C370.548 32.324 370.548 32.2998 370.552 32.2762C370.552 32.2762 370.714 31.9664 370.714 31.9505Z" fill="black"/>
<path d="M349.106 27.9155C349.149 27.9537 349.179 28.0038 349.192 28.0592C349.205 28.1146 349.2 28.1726 349.179 28.2253L345.589 40.0126C345.544 40.1413 345.452 40.2488 345.33 40.3144C345.231 40.3793 345.117 40.4176 344.998 40.4256H333.59C333.493 40.421 333.401 40.3814 333.331 40.3144C333.29 40.2769 333.261 40.2281 333.248 40.1744C333.235 40.1206 333.238 40.0643 333.258 40.0126L336.855 28.2253C336.897 28.095 336.987 27.9845 337.107 27.9155C337.207 27.8553 337.321 27.8199 337.439 27.8123H348.846C348.943 27.8132 349.036 27.8501 349.106 27.9155ZM343.151 37.6376L345.298 30.6002H339.286L337.147 37.6376H343.151ZM359.995 28.0347C360.034 28.079 360.082 28.1142 360.137 28.1376C360.192 28.1609 360.251 28.1719 360.311 28.1697H361.793C361.85 28.1702 361.905 28.1567 361.955 28.1303C362.005 28.1039 362.047 28.0655 362.077 28.0188C362.103 27.9823 362.122 27.941 362.132 27.8973C362.141 27.8537 362.142 27.8086 362.134 27.7646L361.842 25.6677C361.814 25.5706 361.764 25.481 361.696 25.4056C361.657 25.3612 361.609 25.3261 361.554 25.3027C361.499 25.2793 361.44 25.2683 361.38 25.2706H359.897C359.841 25.27 359.785 25.2836 359.736 25.31C359.686 25.3364 359.644 25.3748 359.614 25.4215C359.557 25.5327 359.533 25.6042 359.557 25.6677L359.857 27.7646C359.872 27.8667 359.921 27.9613 359.995 28.0347ZM364.702 25.6518C364.674 25.5548 364.624 25.4651 364.556 25.3897C364.519 25.3455 364.472 25.3104 364.418 25.2869C364.365 25.2635 364.307 25.2525 364.248 25.2547H362.757C362.702 25.2531 362.647 25.2663 362.599 25.2929C362.55 25.3195 362.51 25.3584 362.482 25.4056C362.428 25.476 362.405 25.5646 362.417 25.6518L362.717 27.7487C362.736 27.8498 362.783 27.9434 362.855 28.0188C362.894 28.0623 362.943 28.0968 362.998 28.1201C363.052 28.1435 363.111 28.1549 363.171 28.1538H364.661C364.717 28.1545 364.771 28.141 364.82 28.1145C364.868 28.088 364.909 28.0495 364.937 28.0029C364.965 27.9674 364.985 27.9261 364.995 27.8821C365.004 27.8381 365.004 27.7926 364.994 27.7487L364.702 25.6518ZM358.69 28.829L358.544 27.7964H351.358C351.245 27.8025 351.136 27.8382 351.042 27.8996C350.982 27.9316 350.93 27.9758 350.89 28.0292C350.849 28.0827 350.821 28.1442 350.807 28.2094L350.208 30.1792C350.184 30.2285 350.175 30.2837 350.184 30.3376C350.193 30.3915 350.218 30.4415 350.256 30.4811C350.324 30.5441 350.414 30.5808 350.507 30.5844H359.241L357.094 37.6218H348.385C348.272 37.6243 348.163 37.6573 348.069 37.7171C347.954 37.7884 347.87 37.8987 347.834 38.0268L347.226 39.9967C347.206 40.0472 347.201 40.1022 347.211 40.1554C347.221 40.2087 347.246 40.2582 347.283 40.2985C347.349 40.3657 347.439 40.4055 347.534 40.4097H358.974C359.092 40.3997 359.206 40.3616 359.306 40.2985C359.426 40.2326 359.515 40.1248 359.557 39.9967L362.847 29.2261H359.144C359.085 29.2272 359.027 29.2166 358.973 29.1947C358.918 29.1728 358.869 29.1403 358.828 29.099C358.761 29.027 358.714 28.9396 358.69 28.8449V28.829Z" fill="white"/>
</g>
<defs>
<clipPath id="clip0_211_2045">
<rect width="27.8428" height="27.8428" fill="white" transform="translate(3.19202 21.15)"/>
</clipPath>
<clipPath id="clip1_211_2045">
<rect width="27.8428" height="19.4899" fill="white" transform="translate(58.8775 25.2198)"/>
</clipPath>
<clipPath id="clip2_211_2045">
<rect width="38.2838" height="20.8821" fill="white" transform="translate(109.691 24.5237)"/>
</clipPath>
<clipPath id="clip3_211_2045">
<rect width="32.7153" height="20.186" fill="white" transform="translate(168.16 25.2198)"/>
</clipPath>
<clipPath id="clip4_211_2045">
<rect width="28.5388" height="18.7939" fill="white" transform="translate(225.934 25.9158)"/>
</clipPath>
<clipPath id="clip5_211_2045">
<rect width="36.1956" height="13.9214" fill="white" transform="translate(277.443 28.004)"/>
</clipPath>
<clipPath id="clip6_211_2045">
<rect width="38.2838" height="20.8821" fill="white" transform="translate(332.433 24.5237)"/>
</clipPath>
</defs>
</svg>
