<svg width="134" height="22" viewBox="0 0 134 22" fill="none" xmlns="http://www.w3.org/2000/svg">
<path d="M17.0183 12.1638L12.3791 20.1093L7.73986 12.1638H17.0183ZM18.2612 11.4536H6.492L12.3791 21.5147L18.2612 11.4536Z" fill="white"/>
<path d="M25.0842 2.28135L29.7235 10.2269H20.445L25.0842 2.28135ZM25.0842 0.861084L19.1971 10.9221H30.9713L25.0842 0.861084Z" fill="white"/>
<path d="M0.851471 0.861084L5.7876 9.76008L11.1816 1.08454L0.851471 0.861084Z" fill="#4CAF4F"/>
<path d="M12.3792 1.64062L17.5569 10.49H7.19153L12.3792 1.64062Z" fill="#4CAF4F"/>
<path d="M18.8902 12.422L24.0729 21.5147H13.461L18.7292 12.422H18.8902Z" fill="#4CAF4F"/>
<path d="M20.0123 11.8707L25.0842 20.8243L30.2266 11.8707H20.0123Z" fill="#4CAF4F"/>
<path d="M52.5136 2.29736V19.8216H49.3133L41.6892 8.79195H41.5609V19.8216H37.8558V2.29736H41.1074L48.6716 13.3185H48.8256V2.29736H52.5136Z" fill="white"/>
<path d="M61.496 20.0783C60.144 20.0783 58.9803 19.8045 58.0049 19.2569C57.0351 18.7035 56.2878 17.922 55.763 16.9123C55.2382 15.8969 54.9758 14.6961 54.9758 13.3099C54.9758 11.958 55.2382 10.7714 55.763 9.75031C56.2878 8.7292 57.0265 7.93342 57.9792 7.36297C58.9375 6.79252 60.0613 6.50729 61.3506 6.50729C62.2176 6.50729 63.0248 6.64705 63.7721 6.92658C64.5251 7.20039 65.1811 7.61397 65.7402 8.16731C66.3049 8.72064 66.7442 9.4166 67.0579 10.2552C67.3717 11.088 67.5285 12.0635 67.5285 13.1816V14.1827H56.4304V11.9237H64.0973C64.0973 11.3989 63.9832 10.934 63.755 10.529C63.5268 10.124 63.2102 9.80735 62.8052 9.57917C62.4059 9.34529 61.941 9.22835 61.4105 9.22835C60.8571 9.22835 60.3665 9.3567 59.9387 9.6134C59.5166 9.8644 59.1857 10.2038 58.9461 10.6317C58.7065 11.0538 58.5839 11.5244 58.5782 12.0435V14.1913C58.5782 14.8416 58.698 15.4035 58.9375 15.877C59.1828 16.3504 59.528 16.7155 59.9729 16.9722C60.4179 17.2289 60.9455 17.3573 61.5559 17.3573C61.9609 17.3573 62.3317 17.3002 62.6683 17.1861C63.0049 17.0721 63.2929 16.9009 63.5325 16.6727C63.7721 16.4446 63.9547 16.165 64.0802 15.8342L67.4515 16.0566C67.2804 16.8667 66.9296 17.5741 66.399 18.1787C65.8742 18.7777 65.1954 19.2455 64.3625 19.582C63.5354 19.9129 62.5799 20.0783 61.496 20.0783Z" fill="white"/>
<path d="M72.7182 6.67843L75.1312 11.2734L77.6041 6.67843H81.3434L77.5357 13.25L81.4461 19.8216H77.7239L75.1312 15.278L72.5813 19.8216H68.8163L72.7182 13.25L68.9532 6.67843H72.7182Z" fill="white"/>
<path d="M88.9761 20.0783C87.6298 20.0783 86.4718 19.7931 85.502 19.2227C84.538 18.6465 83.7964 17.8479 83.2773 16.8268C82.7639 15.8056 82.5072 14.6305 82.5072 13.3014C82.5072 11.9551 82.7667 10.7743 83.2858 9.75887C83.8106 8.73776 84.5551 7.94198 85.5191 7.37153C86.4832 6.79537 87.6298 6.50729 88.959 6.50729C90.1056 6.50729 91.1096 6.71551 91.971 7.13194C92.8323 7.54837 93.514 8.13308 94.016 8.88608C94.518 9.63907 94.7947 10.5233 94.846 11.5387H91.4062C91.3092 10.8827 91.0525 10.355 90.6361 9.95567C90.2254 9.55065 89.6863 9.34814 89.0189 9.34814C88.4541 9.34814 87.9607 9.50216 87.5385 9.81021C87.1221 10.1125 86.797 10.5546 86.5631 11.1365C86.3292 11.7184 86.2122 12.4229 86.2122 13.25C86.2122 14.0886 86.3263 14.8017 86.5545 15.3892C86.7884 15.9768 87.1164 16.4246 87.5385 16.7326C87.9607 17.0407 88.4541 17.1947 89.0189 17.1947C89.4353 17.1947 89.8089 17.1091 90.1398 16.938C90.4764 16.7669 90.753 16.5187 90.9698 16.1936C91.1923 15.8627 91.3378 15.4662 91.4062 15.0042H94.846C94.789 16.0082 94.5152 16.8924 94.0246 17.6568C93.5397 18.4155 92.8694 19.0087 92.0137 19.4366C91.1581 19.8644 90.1455 20.0783 88.9761 20.0783Z" fill="white"/>
<path d="M103.17 20.0783C101.818 20.0783 100.654 19.8045 99.6785 19.2569C98.7087 18.7035 97.9614 17.922 97.4366 16.9123C96.9118 15.8969 96.6494 14.6961 96.6494 13.3099C96.6494 11.958 96.9118 10.7714 97.4366 9.75031C97.9614 8.7292 98.7001 7.93342 99.6528 7.36297C100.611 6.79252 101.735 6.50729 103.024 6.50729C103.891 6.50729 104.698 6.64705 105.446 6.92658C106.199 7.20039 106.855 7.61397 107.414 8.16731C107.979 8.72064 108.418 9.4166 108.732 10.2552C109.045 11.088 109.202 12.0635 109.202 13.1816V14.1827H98.104V11.9237H105.771C105.771 11.3989 105.657 10.934 105.429 10.529C105.2 10.124 104.884 9.80735 104.479 9.57917C104.079 9.34529 103.615 9.22835 103.084 9.22835C102.531 9.22835 102.04 9.3567 101.612 9.6134C101.19 9.8644 100.859 10.2038 100.62 10.6317C100.38 11.0538 100.257 11.5244 100.252 12.0435V14.1913C100.252 14.8416 100.372 15.4035 100.611 15.877C100.856 16.3504 101.202 16.7155 101.647 16.9722C102.091 17.2289 102.619 17.3573 103.23 17.3573C103.635 17.3573 104.005 17.3002 104.342 17.1861C104.678 17.0721 104.967 16.9009 105.206 16.6727C105.446 16.4446 105.628 16.165 105.754 15.8342L109.125 16.0566C108.954 16.8667 108.603 17.5741 108.073 18.1787C107.548 18.7777 106.869 19.2455 106.036 19.582C105.209 19.9129 104.253 20.0783 103.17 20.0783Z" fill="white"/>
<path d="M115.226 12.2232V19.8216H111.581V6.67843H115.055V8.99731H115.209C115.5 8.23291 115.988 7.62823 116.672 7.18328C117.357 6.73262 118.187 6.50729 119.162 6.50729C120.075 6.50729 120.871 6.70695 121.55 7.10627C122.228 7.50558 122.756 8.07603 123.133 8.81762C123.509 9.5535 123.697 10.432 123.697 11.4531V19.8216H120.052V12.1034C120.058 11.2991 119.852 10.6716 119.436 10.2209C119.02 9.76457 118.446 9.53639 117.716 9.53639C117.226 9.53639 116.792 9.64192 116.415 9.85299C116.045 10.0641 115.754 10.3721 115.543 10.7771C115.337 11.1764 115.232 11.6585 115.226 12.2232Z" fill="white"/>
<path d="M133.561 6.67843V9.4166H125.646V6.67843H133.561ZM127.443 3.52954H131.088V15.7828C131.088 16.1194 131.14 16.3818 131.242 16.5701C131.345 16.7526 131.488 16.881 131.67 16.9551C131.858 17.0293 132.075 17.0663 132.32 17.0663C132.492 17.0663 132.663 17.0521 132.834 17.0236C133.005 16.9893 133.136 16.9637 133.227 16.9466L133.801 19.659C133.618 19.7161 133.361 19.7817 133.031 19.8559C132.7 19.9357 132.298 19.9842 131.824 20.0013C130.946 20.0355 130.175 19.9186 129.514 19.6505C128.858 19.3824 128.347 18.966 127.982 18.4012C127.617 17.8365 127.437 17.1234 127.443 16.262V3.52954Z" fill="white"/>
</svg>
