<svg width="25" height="17" viewBox="0 0 25 17" fill="none" xmlns="http://www.w3.org/2000/svg">
<path d="M13.3106 9.17141L9.55812 15.5981L5.80569 9.17141H13.3106ZM14.3159 8.597H4.79636L9.55812 16.7349L14.3159 8.597Z" fill="#263238"/>
<path d="M19.8347 1.17803L23.5871 7.60476H16.0822L19.8347 1.17803ZM19.8347 0.0292511L15.0729 8.16711H24.5964L19.8347 0.0292511Z" fill="#263238"/>
<path d="M0.234009 0.0292511L4.2266 7.2272L8.58952 0.209993L0.234009 0.0292511Z" fill="#4CAF4F"/>
<path d="M9.55822 0.659809L13.7462 7.8176H5.36215L9.55822 0.659809Z" fill="#4CAF4F"/>
<path d="M14.8247 9.38028L19.0167 16.7349H10.4332L14.6944 9.38028H14.8247Z" fill="#4CAF4F"/>
<path d="M15.7322 8.93442L19.8347 16.1765L23.9941 8.93442H15.7322Z" fill="#4CAF4F"/>
</svg>
