<svg width="14" height="13" viewBox="0 0 14 13" fill="none" xmlns="http://www.w3.org/2000/svg">
<g clip-path="url(#clip0_6159_228)">
<path fill-rule="evenodd" clip-rule="evenodd" d="M12.4608 0.898526C12.6026 1.04033 12.6506 1.25084 12.5844 1.44013L8.93002 11.8812C8.8593 12.0832 8.67243 12.2216 8.45855 12.2303C8.24468 12.2391 8.04715 12.1163 7.96021 11.9207L5.95355 7.40575L1.43857 5.39909C1.24297 5.31216 1.12025 5.11463 1.12898 4.90076C1.1377 4.68688 1.2761 4.50001 1.47813 4.42929L11.9192 0.774929C12.1085 0.708678 12.319 0.756716 12.4608 0.898526ZM6.97174 7.12586L8.37953 10.2934L10.8432 3.25444L6.97174 7.12586ZM10.1049 2.51614L3.06592 4.97978L6.23345 6.38757L10.1049 2.51614Z" fill="white"/>
</g>
<defs>
<clipPath id="clip0_6159_228">
<rect width="12.5293" height="12.5293" fill="white" transform="translate(0.606445 0.223633)"/>
</clipPath>
</defs>
</svg>
