<svg width="17" height="12" viewBox="0 0 17 12" fill="none" xmlns="http://www.w3.org/2000/svg">
<path d="M11.347 0.951721H11.348C12.0374 0.949719 12.7131 1.13309 13.3041 1.48102L13.5521 1.6402C14.1177 2.03463 14.5651 2.57342 14.849 3.19781L14.9603 3.47028C15.2305 4.21052 15.266 5.01678 15.0619 5.77789C14.8578 6.53886 14.4239 7.21848 13.8197 7.72418L13.6156 7.89508L13.8578 8.00446C14.7264 8.39754 15.4892 8.98765 16.0863 9.72614L16.3314 10.0513L16.3324 10.0523C16.3769 10.1146 16.4091 10.1856 16.4261 10.2603C16.4346 10.2976 16.4388 10.3356 16.4398 10.3736L16.432 10.4879C16.4254 10.5257 16.4146 10.5626 16.4008 10.5982L16.35 10.6998C16.3293 10.7321 16.3051 10.7621 16.2787 10.7896L16.1918 10.8638L16.1898 10.8648C16.0924 10.9344 15.9755 10.9716 15.8558 10.9713L15.7855 10.9673C15.7394 10.9615 15.6943 10.9496 15.6508 10.9332L15.5863 10.9048C15.5033 10.8616 15.4315 10.7995 15.3773 10.7232H15.3783C14.98 10.1581 14.4679 9.68334 13.8763 9.32965L13.6176 9.1861C13.0041 8.86754 12.3317 8.68129 11.6439 8.63922L11.348 8.63043L11.2328 8.61871C11.1581 8.60372 11.0872 8.57408 11.0238 8.5318L10.9349 8.45953C10.8254 8.35003 10.7631 8.2013 10.7631 8.04645C10.7631 7.93027 10.7982 7.81749 10.8617 7.72223L10.9349 7.63336C11.0445 7.5238 11.1931 7.46149 11.348 7.46149C11.9677 7.46141 12.5652 7.24635 13.0404 6.85699L13.2367 6.67926C13.7374 6.1784 14.0189 5.4988 14.0189 4.79059C14.0188 4.17082 13.8029 3.57342 13.4135 3.09821L13.2367 2.90192C12.7984 2.46365 12.2231 2.19408 11.6117 2.13336L11.348 2.11969C11.1648 2.11934 10.9821 2.13855 10.8031 2.17633L10.6254 2.22028L10.6234 2.22125C10.5494 2.24326 10.4717 2.24995 10.3949 2.24176C10.3564 2.23764 10.3183 2.22987 10.2816 2.21832L10.1752 2.17242C10.1073 2.13505 10.0475 2.08466 9.99939 2.02399C9.97541 1.99377 9.95439 1.96147 9.93689 1.92731L9.8949 1.81891C9.87395 1.74437 9.86787 1.66626 9.87732 1.58942C9.88205 1.55112 9.89062 1.51356 9.90271 1.47711L9.94958 1.37164C9.96885 1.3379 9.99154 1.30604 10.017 1.27692L10.101 1.19781C10.1316 1.17427 10.1641 1.15328 10.1986 1.13629L10.307 1.09625L10.3099 1.09528C10.563 1.02322 10.8233 0.978363 11.0853 0.96051L11.347 0.951721ZM6.24548 0.946838C6.9346 0.946838 7.60945 1.13216 8.19958 1.48102L8.44666 1.6402C9.01115 2.03519 9.45805 2.57382 9.74158 3.19781L9.85291 3.47125C10.0888 4.1184 10.1453 4.81517 10.0199 5.48883L9.95544 5.77692C9.75229 6.53764 9.3197 7.2173 8.71716 7.72418L8.51501 7.89508L8.75623 8.00446C9.62481 8.39757 10.3877 8.98764 10.9847 9.72614L11.2299 10.0513L11.2347 10.0582C11.2591 10.0893 11.2807 10.1225 11.2982 10.1578L11.3392 10.2691C11.3493 10.3072 11.3556 10.3461 11.3578 10.3853L11.3519 10.5035C11.3461 10.5425 11.337 10.5809 11.3236 10.6177L11.2719 10.7242C11.2304 10.7915 11.1754 10.8495 11.1107 10.8951C11.0784 10.9178 11.0442 10.938 11.0082 10.9537L10.8949 10.9888C10.8562 10.997 10.817 11.0013 10.7777 11.0015L10.6605 10.9908C10.6217 10.983 10.5836 10.971 10.5472 10.9556L10.4437 10.899C10.4112 10.8766 10.3811 10.8511 10.3539 10.8228L10.2806 10.73L10.2758 10.7232L10.099 10.4869C9.73076 10.0241 9.28223 9.63141 8.77478 9.3277L8.51697 9.18317C7.81548 8.81858 7.03606 8.62848 6.24548 8.62848C5.55388 8.62852 4.8713 8.77464 4.24158 9.05524L3.97498 9.18317C3.36109 9.50224 2.8224 9.94725 2.39294 10.4869L2.21521 10.7232V10.7242C2.16181 10.8008 2.09007 10.8637 2.0072 10.9068C1.94521 10.939 1.87794 10.9591 1.80896 10.9673L1.73865 10.9713H1.73767C1.64772 10.9715 1.55953 10.9507 1.47986 10.9107L1.40369 10.8648H1.40271C1.30799 10.7979 1.23595 10.7048 1.1947 10.5982L1.16443 10.4869C1.14465 10.3727 1.15945 10.2564 1.20544 10.1519L1.26208 10.0513C1.88901 9.16033 2.74315 8.45362 3.73572 8.00446L3.97693 7.89508L3.7738 7.72418C3.24674 7.28071 2.85043 6.70471 2.62341 6.05817L2.5365 5.77692C2.35882 5.11131 2.36352 4.41151 2.54822 3.75153L2.63904 3.47125C2.87516 2.82379 3.27994 2.25285 3.80994 1.81793L4.04431 1.6402C4.68947 1.18875 5.45806 0.946898 6.24548 0.946838ZM6.76697 2.17145C6.31355 2.08126 5.84546 2.11025 5.40857 2.25446L5.224 2.32379C4.79699 2.50066 4.42411 2.78453 4.14099 3.14703L4.02478 3.30719C3.73144 3.74628 3.57466 4.26253 3.57458 4.79059C3.57458 5.41056 3.79046 6.00861 4.18005 6.48395L4.35681 6.67926C4.85764 7.18009 5.53721 7.46141 6.24548 7.46149C6.70776 7.46149 7.16154 7.34243 7.56189 7.11578L7.72986 7.01129C8.11403 6.75451 8.42433 6.40342 8.63123 5.99274L8.71326 5.81305C8.89008 5.38616 8.9529 4.9218 8.89685 4.46539L8.8656 4.27008C8.77545 3.81684 8.56915 3.39579 8.26892 3.04742L8.13416 2.90192C7.7607 2.52859 7.28487 2.27449 6.76697 2.17145Z" fill="#4CAF4F" stroke="#4CAF4F" stroke-width="0.333867"/>
</svg>
