<svg width="17" height="17" viewBox="0 0 17 17" fill="none" xmlns="http://www.w3.org/2000/svg">
<path d="M4.14453 3.05585H13.6592C14.1433 3.05585 14.6102 3.22435 14.9814 3.5285L15.1348 3.66718C15.5261 4.0585 15.7461 4.58936 15.7461 5.14276V11.6525C15.7461 12.1369 15.5778 12.6044 15.2734 12.9758L15.1348 13.1281C14.7434 13.5194 14.2126 13.7394 13.6592 13.7394H4.14453C3.66038 13.7394 3.19355 13.5709 2.82227 13.2668L2.66895 13.1281C2.27763 12.7368 2.05762 12.2059 2.05762 11.6525V5.14276C2.05762 4.65861 2.22614 4.19177 2.53027 3.8205L2.66895 3.66718C3.01125 3.32487 3.45998 3.11313 3.9375 3.06561L4.14453 3.05585ZM2.72559 11.6525C2.72559 12.0288 2.87453 12.3903 3.14062 12.6564C3.40673 12.9225 3.76821 13.0715 4.14453 13.0715H13.6592C14.0355 13.0715 14.397 12.9225 14.6631 12.6564C14.9292 12.3903 15.0781 12.0288 15.0781 11.6525V6.7287H2.72559V11.6525ZM11.4062 10.0666H12.9082C12.9747 10.0666 13.0392 10.0868 13.0938 10.1232L13.1445 10.1652C13.2069 10.2277 13.2421 10.3123 13.2422 10.4006C13.2422 10.4671 13.222 10.5316 13.1855 10.5861L13.1445 10.6369C13.0819 10.6995 12.9968 10.7346 12.9082 10.7346H11.4062C11.3399 10.7346 11.2751 10.7151 11.2207 10.6789L11.1699 10.6369C11.1073 10.5743 11.0723 10.4891 11.0723 10.4006C11.0723 10.3344 11.0918 10.2703 11.1279 10.216L11.1699 10.1652C11.2325 10.1026 11.3177 10.0666 11.4062 10.0666ZM4.14453 3.72382C3.76821 3.72382 3.40673 3.87275 3.14062 4.13885C2.87452 4.40496 2.72559 4.76644 2.72559 5.14276V6.06073H15.0781V5.14276C15.0781 4.76645 14.9292 4.40495 14.6631 4.13885C14.397 3.87275 14.0355 3.72382 13.6592 3.72382H4.14453Z" fill="#4CAF4F" stroke="#4CAF4F" stroke-width="0.333867"/>
</svg>
