<svg width="17" height="17" viewBox="0 0 17 17" fill="none" xmlns="http://www.w3.org/2000/svg">
<mask id="path-1-inside-1_212_1413" fill="white">
<path d="M10.3414 7.92435C10.261 7.92435 10.1863 7.90225 10.12 7.8667V7.86764C10.12 7.99412 10.0708 8.1129 9.98165 8.20186C9.89245 8.29106 9.77376 8.34022 9.64742 8.34022C9.56586 8.34022 9.49027 8.31757 9.42324 8.28107C9.41648 8.39678 9.37023 8.50493 9.28772 8.58753C9.19852 8.67673 9.07983 8.72589 8.95341 8.72589C8.70225 8.72589 8.49828 8.52846 8.48358 8.281C8.40587 8.323 8.31801 8.34502 8.22739 8.3392C7.98031 8.323 7.78682 8.10952 7.78682 7.85309V5.72748L7.54478 6.1468C7.45259 6.30718 7.28003 6.40676 7.09423 6.40676C7.00369 6.40676 6.91426 6.38301 6.83505 6.33762C6.73641 6.28044 6.66586 6.18864 6.63651 6.07883C6.60702 5.96894 6.62228 5.85402 6.6793 5.75553C6.67938 5.75553 7.47123 4.38428 7.51954 4.30005C7.52528 4.28738 7.54164 4.25065 7.55557 4.21934C7.56886 4.18945 7.58027 4.15878 7.5912 4.12794C7.83 3.45377 8.42129 3.03499 9.1344 3.03499C10.0604 3.03499 10.8138 3.85193 10.8138 4.8561L10.8139 7.4517C10.8139 7.57802 10.7648 7.69672 10.6757 7.786C10.5865 7.8752 10.4678 7.92436 10.3413 7.92436L10.3414 7.92435ZM9.13441 3.28611C8.52165 3.28611 8.03326 3.63221 7.82789 4.21192C7.81476 4.24874 7.80107 4.28555 7.7851 4.32142C7.73877 4.42532 7.73877 4.42532 7.72571 4.44027L7.72398 4.43877C7.65933 4.56077 7.46724 4.89342 6.89674 5.88121C6.8733 5.92172 6.86708 5.96876 6.87904 6.01375C6.89115 6.05874 6.92018 6.09666 6.96037 6.11986C7.08512 6.19152 7.25597 6.14527 7.32708 6.02138L7.80367 5.19625C7.83214 5.14709 7.88972 5.12294 7.94494 5.13788C7.99984 5.15259 8.03799 5.20238 8.03799 5.25917V7.85316C8.03799 7.97555 8.13033 8.08118 8.24385 8.08866C8.30929 8.09212 8.37033 8.07017 8.41619 8.02439C8.45788 7.9827 8.48084 7.92717 8.48084 7.86778V6.17128C8.48084 6.10191 8.53708 6.04566 8.60646 6.04566C8.67584 6.04566 8.73208 6.10183 8.73208 6.17128L8.732 8.2534C8.732 8.37548 8.83134 8.47482 8.95342 8.47482C9.01273 8.47482 9.06842 8.45185 9.11019 8.41016C9.15188 8.3684 9.17484 8.31271 9.17484 8.2534V6.17128C9.17484 6.1019 9.23101 6.04566 9.30046 6.04566C9.36984 6.04566 9.42608 6.10183 9.42608 6.17128L9.426 7.84827V7.86778C9.426 7.98978 9.52535 8.08912 9.6475 8.08912C9.70673 8.08912 9.76226 8.06607 9.80427 8.02422C9.84596 7.98261 9.86892 7.92708 9.86892 7.86769V6.17119C9.86892 6.10182 9.92509 6.04558 9.99454 6.04558C10.0639 6.04558 10.1202 6.10174 10.1202 6.17119L10.12 7.45175C10.12 7.57391 10.2193 7.67326 10.3413 7.67326C10.4007 7.67326 10.4563 7.65021 10.498 7.6086C10.5398 7.56675 10.5627 7.51106 10.5627 7.45175L10.5628 4.85616C10.5628 3.99053 9.92202 3.28613 9.1344 3.28613L9.13441 3.28611Z"/>
</mask>
<path d="M10.3414 7.92435C10.261 7.92435 10.1863 7.90225 10.12 7.8667V7.86764C10.12 7.99412 10.0708 8.1129 9.98165 8.20186C9.89245 8.29106 9.77376 8.34022 9.64742 8.34022C9.56586 8.34022 9.49027 8.31757 9.42324 8.28107C9.41648 8.39678 9.37023 8.50493 9.28772 8.58753C9.19852 8.67673 9.07983 8.72589 8.95341 8.72589C8.70225 8.72589 8.49828 8.52846 8.48358 8.281C8.40587 8.323 8.31801 8.34502 8.22739 8.3392C7.98031 8.323 7.78682 8.10952 7.78682 7.85309V5.72748L7.54478 6.1468C7.45259 6.30718 7.28003 6.40676 7.09423 6.40676C7.00369 6.40676 6.91426 6.38301 6.83505 6.33762C6.73641 6.28044 6.66586 6.18864 6.63651 6.07883C6.60702 5.96894 6.62228 5.85402 6.6793 5.75553C6.67938 5.75553 7.47123 4.38428 7.51954 4.30005C7.52528 4.28738 7.54164 4.25065 7.55557 4.21934C7.56886 4.18945 7.58027 4.15878 7.5912 4.12794C7.83 3.45377 8.42129 3.03499 9.1344 3.03499C10.0604 3.03499 10.8138 3.85193 10.8138 4.8561L10.8139 7.4517C10.8139 7.57802 10.7648 7.69672 10.6757 7.786C10.5865 7.8752 10.4678 7.92436 10.3413 7.92436L10.3414 7.92435ZM9.13441 3.28611C8.52165 3.28611 8.03326 3.63221 7.82789 4.21192C7.81476 4.24874 7.80107 4.28555 7.7851 4.32142C7.73877 4.42532 7.73877 4.42532 7.72571 4.44027L7.72398 4.43877C7.65933 4.56077 7.46724 4.89342 6.89674 5.88121C6.8733 5.92172 6.86708 5.96876 6.87904 6.01375C6.89115 6.05874 6.92018 6.09666 6.96037 6.11986C7.08512 6.19152 7.25597 6.14527 7.32708 6.02138L7.80367 5.19625C7.83214 5.14709 7.88972 5.12294 7.94494 5.13788C7.99984 5.15259 8.03799 5.20238 8.03799 5.25917V7.85316C8.03799 7.97555 8.13033 8.08118 8.24385 8.08866C8.30929 8.09212 8.37033 8.07017 8.41619 8.02439C8.45788 7.9827 8.48084 7.92717 8.48084 7.86778V6.17128C8.48084 6.10191 8.53708 6.04566 8.60646 6.04566C8.67584 6.04566 8.73208 6.10183 8.73208 6.17128L8.732 8.2534C8.732 8.37548 8.83134 8.47482 8.95342 8.47482C9.01273 8.47482 9.06842 8.45185 9.11019 8.41016C9.15188 8.3684 9.17484 8.31271 9.17484 8.2534V6.17128C9.17484 6.1019 9.23101 6.04566 9.30046 6.04566C9.36984 6.04566 9.42608 6.10183 9.42608 6.17128L9.426 7.84827V7.86778C9.426 7.98978 9.52535 8.08912 9.6475 8.08912C9.70673 8.08912 9.76226 8.06607 9.80427 8.02422C9.84596 7.98261 9.86892 7.92708 9.86892 7.86769V6.17119C9.86892 6.10182 9.92509 6.04558 9.99454 6.04558C10.0639 6.04558 10.1202 6.10174 10.1202 6.17119L10.12 7.45175C10.12 7.57391 10.2193 7.67326 10.3413 7.67326C10.4007 7.67326 10.4563 7.65021 10.498 7.6086C10.5398 7.56675 10.5627 7.51106 10.5627 7.45175L10.5628 4.85616C10.5628 3.99053 9.92202 3.28613 9.1344 3.28613L9.13441 3.28611Z" fill="#4CAF4F"/>
<path d="M10.3414 7.92435V7.4792H11.9141L10.5747 8.30347L10.3414 7.92435ZM10.12 7.8667H9.67485V7.12289L10.3304 7.47438L10.12 7.8667ZM9.98165 8.20186L9.66688 7.88709L9.66729 7.88668L9.98165 8.20186ZM9.42324 8.28107L8.97885 8.25509L9.01981 7.55449L9.63614 7.89013L9.42324 8.28107ZM9.28772 8.58753L9.60265 8.90214L9.60249 8.9023L9.28772 8.58753ZM8.48358 8.281L8.27193 7.88938L8.88653 7.5572L8.92796 8.2546L8.48358 8.281ZM8.22739 8.3392L8.19885 8.78344L8.19826 8.7834L8.22739 8.3392ZM7.78682 5.72748L7.40128 5.50494L8.23198 4.0658V5.72748H7.78682ZM7.54478 6.1468L7.15884 5.92496L7.15924 5.92426L7.54478 6.1468ZM6.83505 6.33762L6.61373 6.72387L6.61178 6.72274L6.83505 6.33762ZM6.63651 6.07883L7.06645 5.96342L7.06658 5.96392L6.63651 6.07883ZM6.6793 5.75553L6.29407 5.53247L6.42267 5.31038H6.6793V5.75553ZM7.51954 4.30005L7.92497 4.48387L7.91623 4.50315L7.9057 4.52151L7.51954 4.30005ZM7.55557 4.21934L7.14882 4.03846L7.14882 4.03845L7.55557 4.21934ZM7.5912 4.12794L8.01081 4.27657L8.01077 4.27669L7.5912 4.12794ZM10.8138 4.8561L10.3687 4.85611V4.8561H10.8138ZM10.8139 7.4517L11.2591 7.45168V7.4517H10.8139ZM10.6757 7.786L10.9908 8.10048L10.9905 8.10077L10.6757 7.786ZM10.3413 7.92436V8.36952H8.76858L10.108 7.54524L10.3413 7.92436ZM9.13441 3.28611V2.84095H9.72456L9.56244 3.4084L9.13441 3.28611ZM7.82789 4.21192L8.24749 4.36058L8.24715 4.36153L7.82789 4.21192ZM7.7851 4.32142L8.19178 4.50246L8.19167 4.5027L7.7851 4.32142ZM7.72571 4.44027L8.06094 4.73316L7.76972 5.06646L7.43475 4.77717L7.72571 4.44027ZM7.72398 4.43877L7.33065 4.23032L7.59221 3.73678L8.01495 4.10187L7.72398 4.43877ZM6.89674 5.88121L7.28222 6.10385L7.28203 6.10417L6.89674 5.88121ZM6.87904 6.01375L6.44919 6.12948L6.44882 6.12809L6.87904 6.01375ZM6.96037 6.11986L6.73865 6.50587L6.73781 6.50539L6.96037 6.11986ZM7.32708 6.02138L6.94099 5.79979L6.9416 5.79873L7.32708 6.02138ZM7.80367 5.19625L7.41819 4.9736L7.41846 4.97313L7.80367 5.19625ZM7.94494 5.13788L7.82974 5.56788L7.82864 5.56758L7.94494 5.13788ZM8.24385 8.08866L8.22033 8.53323L8.21461 8.53285L8.24385 8.08866ZM8.41619 8.02439L8.73096 8.33916L8.73068 8.33944L8.41619 8.02439ZM8.73208 6.17128H9.17723V6.1713L8.73208 6.17128ZM8.732 8.2534H8.28684V8.25338L8.732 8.2534ZM9.11019 8.41016L9.42526 8.72464L9.42466 8.72524L9.11019 8.41016ZM9.42608 6.17128H9.87123V6.1713L9.42608 6.17128ZM9.426 7.84827H8.98084V7.84825L9.426 7.84827ZM9.80427 8.02422L10.1187 8.33929L10.1185 8.33959L9.80427 8.02422ZM10.1202 6.17119H10.5653V6.17125L10.1202 6.17119ZM10.12 7.45175H9.67485L9.67485 7.4517L10.12 7.45175ZM10.498 7.6086L10.8127 7.92337L10.8124 7.92367L10.498 7.6086ZM10.5627 7.45175H10.1175V7.45174L10.5627 7.45175ZM10.5628 4.85616H11.0079V4.85617L10.5628 4.85616ZM9.1344 3.28613V3.73129H8.54425L8.70637 3.16384L9.1344 3.28613ZM10.3414 8.36951C10.1774 8.36951 10.0311 8.32413 9.90965 8.25901L10.3304 7.47438C10.3361 7.47746 10.3398 7.47864 10.3412 7.47903C10.3425 7.47937 10.3423 7.4792 10.3414 7.4792V8.36951ZM10.5652 7.8667V7.86764H9.67485V7.8667H10.5652ZM10.5652 7.86764C10.5652 8.11182 10.4693 8.34417 10.296 8.51705L9.66729 7.88668C9.67047 7.8835 9.67205 7.88078 9.67297 7.87856C9.67389 7.87633 9.67485 7.8729 9.67485 7.86764H10.5652ZM10.2964 8.51664C10.1237 8.68939 9.89172 8.78538 9.64742 8.78538V7.89507C9.65253 7.89507 9.65589 7.89414 9.65817 7.8932C9.66045 7.89225 9.6634 7.89057 9.66688 7.88709L10.2964 8.51664ZM9.64742 8.78538C9.48137 8.78538 9.3332 8.73892 9.21035 8.67202L9.63614 7.89013C9.64194 7.89328 9.64561 7.89449 9.64707 7.89488C9.64832 7.89522 9.64822 7.89507 9.64742 7.89507V8.78538ZM9.86764 8.30705C9.85483 8.52617 9.76595 8.73867 9.60265 8.90214L8.97278 8.27292C8.97443 8.27127 8.97539 8.26981 8.97619 8.26797C8.97707 8.26597 8.97845 8.26189 8.97885 8.25509L9.86764 8.30705ZM9.60249 8.9023C9.42971 9.07509 9.19775 9.17105 8.95341 9.17105V8.28074C8.95859 8.28074 8.96198 8.2798 8.96426 8.27885C8.96653 8.27791 8.96947 8.27623 8.97294 8.27276L9.60249 8.9023ZM8.95341 9.17105C8.46196 9.17105 8.0676 8.78533 8.03921 8.30739L8.92796 8.2546C8.92841 8.26217 8.9315 8.26881 8.93698 8.27404C8.93966 8.27659 8.94237 8.27823 8.94473 8.27919C8.9468 8.28004 8.94943 8.28074 8.95341 8.28074V9.17105ZM8.69524 8.67261C8.55145 8.75033 8.38097 8.79514 8.19885 8.78344L8.25593 7.89496C8.25593 7.89496 8.25688 7.89506 8.25923 7.89451C8.26174 7.89392 8.2661 7.89253 8.27193 7.88938L8.69524 8.67261ZM8.19826 8.7834C7.70399 8.75099 7.34167 8.33065 7.34167 7.85309H8.23198C8.23198 7.86814 8.23744 7.87973 8.24429 7.88729C8.25097 7.89465 8.2555 7.89493 8.25652 7.895L8.19826 8.7834ZM7.34167 7.85309V5.72748H8.23198V7.85309H7.34167ZM8.17236 5.95002L7.93032 6.36934L7.15924 5.92426L7.40128 5.50494L8.17236 5.95002ZM7.93072 6.36864C7.75871 6.66789 7.43853 6.85192 7.09423 6.85192V5.96161C7.12152 5.96161 7.14647 5.94647 7.15884 5.92496L7.93072 6.36864ZM7.09423 6.85192C6.92588 6.85192 6.76017 6.80777 6.61373 6.72386L7.05637 5.95138C7.06834 5.95824 7.08149 5.96161 7.09423 5.96161V6.85192ZM6.61178 6.72274C6.41192 6.60687 6.26645 6.41831 6.20644 6.19373L7.06658 5.96392C7.06618 5.9624 7.06507 5.95971 7.06292 5.95692C7.0608 5.95415 7.05883 5.9528 7.05832 5.9525L6.61178 6.72274ZM6.20658 6.19423C6.14634 5.96982 6.17788 5.73314 6.29407 5.53247L7.06454 5.9786C7.06517 5.9775 7.06629 5.97496 7.06676 5.97136C7.06724 5.96776 7.06684 5.96488 7.06645 5.96342L6.20658 6.19423ZM6.6793 5.31038C6.46094 5.36762 6.29749 5.52666 6.29627 5.52871C6.29587 5.5294 6.29526 5.53043 6.29507 5.53076C6.29496 5.53095 6.29477 5.53127 6.2947 5.53138C6.29466 5.53145 6.29458 5.53159 6.29456 5.53162C6.2945 5.53173 6.29452 5.5317 6.29469 5.53141C6.29499 5.53089 6.2955 5.53001 6.29624 5.52873C6.2977 5.5262 6.29989 5.5224 6.3028 5.51738C6.30859 5.50735 6.31711 5.49261 6.32798 5.47379C6.34973 5.43614 6.38084 5.38227 6.41834 5.31734C6.49334 5.18748 6.59383 5.01345 6.69582 4.83679C6.90016 4.48288 7.10966 4.11996 7.13338 4.07858L7.9057 4.52151C7.88112 4.56437 7.67053 4.92919 7.46685 5.28196C7.36484 5.45864 7.26433 5.6327 7.18932 5.76258C7.15182 5.82752 7.12068 5.88143 7.09892 5.91911C7.08804 5.93795 7.07949 5.95275 7.07365 5.96285C7.07074 5.96789 7.06848 5.9718 7.06693 5.97446C7.06617 5.97578 7.06554 5.97687 7.06508 5.97767C7.06486 5.97804 7.0646 5.9785 7.06434 5.97894C7.06425 5.97911 7.06396 5.9796 7.06362 5.98019C7.0634 5.98056 7.06278 5.98162 7.06236 5.98232C7.06112 5.9844 6.89767 6.14345 6.6793 6.20069V5.31038ZM7.11411 4.11622C7.11901 4.10541 7.13454 4.07057 7.14882 4.03846L7.96231 4.40023C7.94875 4.43073 7.93155 4.46935 7.92497 4.48387L7.11411 4.11622ZM7.14882 4.03845C7.15501 4.02454 7.16186 4.00676 7.17163 3.97919L8.01077 4.27669C7.99868 4.31079 7.98271 4.35437 7.96231 4.40024L7.14882 4.03845ZM7.17159 3.97931C7.47309 3.12813 8.23197 2.58984 9.1344 2.58984V3.48015C8.6106 3.48015 8.18691 3.77942 8.01081 4.27657L7.17159 3.97931ZM9.1344 2.58984C10.3395 2.58984 11.259 3.64071 11.259 4.8561H10.3687C10.3687 4.06315 9.78133 3.48015 9.1344 3.48015V2.58984ZM11.259 4.85608L11.2591 7.45168L10.3687 7.45171L10.3687 4.85611L11.259 4.85608ZM11.2591 7.4517C11.2591 7.69581 11.1633 7.92764 10.9908 8.10048L10.3606 7.47152C10.3642 7.468 10.3659 7.465 10.3668 7.46266C10.3678 7.46032 10.3687 7.45688 10.3687 7.4517H11.2591ZM10.9905 8.10077C10.8177 8.27358 10.5857 8.36952 10.3413 8.36952V7.47921C10.3466 7.47921 10.35 7.47826 10.3523 7.47732C10.3545 7.47638 10.3575 7.4747 10.3609 7.47123L10.9905 8.10077ZM10.108 7.54524L10.108 7.54523L10.5747 8.30347L10.5746 8.30348L10.108 7.54524ZM9.13441 3.73126C8.71117 3.73126 8.39023 3.95768 8.24749 4.36058L7.40829 4.06327C7.6763 3.30675 8.33214 2.84095 9.13441 2.84095V3.73126ZM8.24715 4.36153C8.2331 4.40091 8.21485 4.45064 8.19178 4.50246L7.37842 4.14037C7.38729 4.12045 7.39641 4.09656 7.40863 4.06231L8.24715 4.36153ZM8.19167 4.5027C8.17129 4.54842 8.15421 4.58703 8.14114 4.61318C8.13303 4.62941 8.1199 4.65443 8.10085 4.68214C8.08156 4.71022 8.06249 4.73139 8.06094 4.73316L7.39049 4.14737C7.39154 4.14617 7.39119 4.14656 7.39067 4.14718C7.38999 4.14797 7.38826 4.14998 7.38599 4.15275C7.38092 4.15893 7.37428 4.16745 7.36712 4.17787C7.3532 4.19813 7.34541 4.21385 7.34472 4.21523C7.34421 4.21624 7.34453 4.21564 7.34604 4.2124C7.34751 4.20927 7.34958 4.20475 7.35256 4.19817C7.35864 4.18473 7.36673 4.1666 7.37853 4.14014L8.19167 4.5027ZM7.43475 4.77717L7.43302 4.77568L8.01495 4.10187L8.01668 4.10336L7.43475 4.77717ZM8.11732 4.64723C8.04765 4.77869 7.84875 5.12294 7.28222 6.10385L6.51125 5.65857C7.08574 4.66389 7.27101 4.34286 7.33065 4.23032L8.11732 4.64723ZM7.28203 6.10417C7.31765 6.04261 7.32758 5.96835 7.30926 5.89941L6.44882 6.12809C6.40658 5.96917 6.42894 5.80083 6.51144 5.65825L7.28203 6.10417ZM7.30889 5.89802C7.29057 5.82999 7.24555 5.77048 7.18293 5.73433L6.73781 6.50539C6.59481 6.42283 6.49173 6.2875 6.44919 6.12948L7.30889 5.89802ZM7.1821 5.73385C7.13142 5.70475 7.08214 5.70494 7.04811 5.7141C7.01421 5.72323 6.97074 5.74795 6.94099 5.79979L7.71316 6.24297C7.51915 6.581 7.07577 6.69951 6.73865 6.50587L7.1821 5.73385ZM6.9416 5.79873L7.41819 4.9736L8.18914 5.41889L7.71255 6.24403L6.9416 5.79873ZM7.41846 4.97313C7.54704 4.75114 7.80949 4.64005 8.06124 4.70819L7.82864 5.56758C7.96995 5.60583 8.11724 5.54303 8.18887 5.41936L7.41846 4.97313ZM8.06014 4.70789C8.30987 4.7748 8.48315 5.00111 8.48315 5.25917H7.59284C7.59284 5.40365 7.68981 5.53039 7.82974 5.56787L8.06014 4.70789ZM8.48315 5.25917V7.85316H7.59284V5.25917H8.48315ZM8.48315 7.85316C8.48315 7.80243 8.46436 7.75632 8.43351 7.72103C8.40271 7.68579 8.34836 7.64941 8.27308 7.64446L8.21461 8.53285C7.83987 8.50819 7.59284 8.18175 7.59284 7.85316H8.48315ZM8.26736 7.64412C8.21476 7.64134 8.15052 7.6606 8.10169 7.70934L8.73068 8.33944C8.59014 8.47974 8.40382 8.54289 8.22034 8.53319L8.26736 7.64412ZM8.10141 7.70962C8.05917 7.75187 8.03569 7.80975 8.03569 7.86778H8.926C8.926 8.04459 8.85658 8.21354 8.73096 8.33916L8.10141 7.70962ZM8.03569 7.86778V6.17128H8.926V7.86778H8.03569ZM8.03569 6.17128C8.03569 5.85605 8.29123 5.60051 8.60646 5.60051V6.49082C8.78294 6.49082 8.926 6.34776 8.926 6.17128H8.03569ZM8.60646 5.60051C8.92151 5.60051 9.17723 5.8558 9.17723 6.17128H8.28692C8.28692 6.34786 8.43016 6.49082 8.60646 6.49082V5.60051ZM9.17723 6.1713L9.17715 8.25341L8.28684 8.25338L8.28692 6.17127L9.17723 6.1713ZM9.17715 8.2534C9.17715 8.12962 9.07719 8.02966 8.95342 8.02966V8.91997C8.58549 8.91997 8.28684 8.62133 8.28684 8.2534H9.17715ZM8.95342 8.02966C8.89548 8.02966 8.83788 8.05301 8.79572 8.09509L9.42466 8.72524C9.29896 8.85069 9.12997 8.91997 8.95342 8.91997V8.02966ZM8.79512 8.09569C8.75303 8.13785 8.72969 8.19546 8.72969 8.2534H9.62C9.62 8.42995 9.55072 8.59894 9.42526 8.72464L8.79512 8.09569ZM8.72969 8.2534V6.17128H9.62V8.2534H8.72969ZM8.72969 6.17128C8.72969 5.85624 8.98497 5.60051 9.30046 5.60051V6.49082C9.47704 6.49082 9.62 6.34757 9.62 6.17128H8.72969ZM9.30046 5.60051C9.61551 5.60051 9.87123 5.85579 9.87123 6.17128H8.98092C8.98092 6.34786 9.12417 6.49082 9.30046 6.49082V5.60051ZM9.87123 6.1713L9.87116 7.84829L8.98084 7.84825L8.98092 6.17126L9.87123 6.1713ZM9.87116 7.84827V7.86778H8.98084V7.84827H9.87116ZM9.87116 7.86778C9.87116 7.74371 9.77098 7.64396 9.6475 7.64396V8.53427C9.27971 8.53427 8.98084 8.23585 8.98084 7.86778H9.87116ZM9.6475 7.64396C9.58835 7.64396 9.53108 7.66802 9.49009 7.70886L10.1185 8.33959C9.99344 8.46413 9.82511 8.53427 9.6475 8.53427V7.64396ZM9.48979 7.70915C9.44721 7.75166 9.42377 7.80973 9.42377 7.86769H10.3141C10.3141 8.04443 10.2447 8.21357 10.1187 8.33929L9.48979 7.70915ZM9.42377 7.86769V6.17119H10.3141V7.86769H9.42377ZM9.42377 6.17119C9.42377 5.85614 9.67906 5.60042 9.99454 5.60042V6.49073C10.1711 6.49073 10.3141 6.34749 10.3141 6.17119H9.42377ZM9.99454 5.60042C10.3096 5.60042 10.5653 5.8557 10.5653 6.17119H9.675C9.675 6.34777 9.81825 6.49073 9.99454 6.49073V5.60042ZM10.5653 6.17125L10.5652 7.45181L9.67485 7.4517L9.675 6.17114L10.5653 6.17125ZM10.5652 7.45175C10.5652 7.32827 10.4654 7.2281 10.3413 7.2281V8.11841C9.97329 8.11841 9.67485 7.81955 9.67485 7.45175H10.5652ZM10.3413 7.2281C10.2829 7.2281 10.2253 7.25174 10.1835 7.29353L10.8124 7.92367C10.6872 8.04868 10.5185 8.11841 10.3413 8.11841V7.2281ZM10.1832 7.29383C10.1408 7.33622 10.1175 7.39407 10.1175 7.45175H11.0078C11.0078 7.62806 10.9388 7.79729 10.8127 7.92337L10.1832 7.29383ZM10.1175 7.45174L10.1176 4.85614L11.0079 4.85617L11.0078 7.45177L10.1175 7.45174ZM10.1176 4.85616C10.1176 4.19581 9.63747 3.73129 9.1344 3.73129V2.84098C10.2066 2.84098 11.0079 3.78525 11.0079 4.85616H10.1176ZM8.70637 3.16384L8.70638 3.16381L9.56244 3.4084L9.56243 3.40843L8.70637 3.16384Z" fill="#4CAF4F" mask="url(#path-1-inside-1_212_1413)"/>
<path d="M4.88232 8.78241L4.85693 8.76874C4.8509 8.7796 4.83486 8.80882 4.81104 8.85175C4.81994 8.85621 4.8284 8.86106 4.8374 8.86444C4.85225 8.8377 4.86691 8.81018 4.88232 8.78241Z" fill="#4CAF4F" stroke="#4CAF4F" stroke-width="0.445155"/>
<path d="M9.46533 10.628L9.57861 10.4395L9.47998 10.6036L9.46533 10.628Z" fill="#4CAF4F" stroke="#4CAF4F" stroke-width="0.445155"/>
</svg>
